<?xml version="1.0" encoding="iso-8859-1"?>
<!-- Generator: Adobe Illustrator 19.0.0, SVG Export Plug-In . SVG Version: 6.00 Build 0)  -->
<svg version="1.1" id="Capa_1" xmlns="http://www.w3.org/2000/svg" xmlns:xlink="http://www.w3.org/1999/xlink" x="0px" y="0px"
	 viewBox="0 0 512 512" style="enable-background:new 0 0 512 512;" xml:space="preserve">
<g>
	<g>
		<g>
			<path d="M504.5,150.72c4.143,0,7.5-3.358,7.5-7.5V96.952C512,43.493,468.508,0,415.048,0H96.952C43.493,0,0,43.493,0,96.952
				v272.846c0,0.017,0,0.034,0,0.052v45.199C0,468.507,43.493,512,96.952,512h318.096c53.46,0,96.952-43.493,96.952-96.952V272.894
				c0-0.016,0-0.031,0-0.046v-94.005c0-4.142-3.357-7.5-7.5-7.5s-7.5,3.358-7.5,7.5v89.587
				c-27.144,14.397-56.444,24.021-91.065,29.875c3.802-13.457,5.84-27.647,5.84-42.305c0-85.895-69.881-155.775-155.775-155.775
				c-23.653,0-46.087,5.309-66.187,14.782v-3.671c0-11.985-9.75-21.736-21.735-21.736H84.549c-11.985,0-21.736,9.75-21.736,21.736
				v33.938c0,11.985,9.75,21.735,21.736,21.735h43.672c-17.635,25.245-27.997,55.928-27.997,88.99
				c0,23.637,5.301,46.056,14.763,66.145c-17.538,3.955-34.219,8.734-50.71,14.547c-3.907,1.376-5.957,5.66-4.58,9.566
				c1.086,3.082,3.981,5.009,7.073,5.009c0.827,0,1.668-0.138,2.493-0.429c17.189-6.058,34.606-10.958,53.057-14.949
				c27.247,45.42,76.969,75.886,133.68,75.886c65.263,0,121.272-40.347,144.417-97.404c36.747-5.502,67.861-14.848,96.583-29.081
				v129.757c0,45.19-36.764,81.954-81.952,81.954H96.952C51.764,497,15,460.236,15,415.048v-40.635
				c7.321-3.808,14.764-7.426,22.196-10.759c3.78-1.695,5.47-6.133,3.775-9.912s-6.134-5.47-9.912-3.775
				c-5.364,2.405-10.73,4.961-16.06,7.616V96.952C15,51.764,51.764,15,96.952,15h318.096C460.236,15,497,51.764,497,96.952v46.268
				C497,147.362,500.357,150.72,504.5,150.72z M84.549,152.011L84.549,152.011c-3.714-0.001-6.736-3.022-6.736-6.736v-33.938
				c0-3.714,3.021-6.736,6.736-6.736h83.529c3.714,0,6.735,3.021,6.735,6.736v11.768c-12.925,7.925-24.607,17.682-34.69,28.906
				H84.549z M256,396.775c-77.624,0-140.776-63.151-140.776-140.775S178.376,115.225,256,115.225S396.775,178.376,396.775,256
				S333.624,396.775,256,396.775z"/>
			<path d="M256,153.797c-56.355,0-102.203,45.848-102.203,102.203c0,56.355,45.849,102.203,102.203,102.203
				S358.202,312.355,358.202,256C358.202,199.645,312.355,153.797,256,153.797z M256,343.203c-48.084,0-87.203-39.119-87.203-87.203
				c0-48.084,39.119-87.203,87.203-87.203c48.083,0,87.202,39.119,87.202,87.203S304.083,343.203,256,343.203z"/>
			<path d="M376.195,91.543c0,24.407,19.855,44.263,44.262,44.263c24.406,0,44.263-19.856,44.263-44.263
				c0-24.406-19.856-44.262-44.263-44.262C396.051,47.28,376.195,67.136,376.195,91.543z M449.72,91.543
				c0,16.136-13.127,29.263-29.263,29.263c-16.135,0-29.262-13.127-29.262-29.263c0-16.135,13.127-29.262,29.262-29.262
				C436.593,62.28,449.72,75.407,449.72,91.543z"/>
		</g>
	</g>
</g>
<g>
</g>
<g>
</g>
<g>
</g>
<g>
</g>
<g>
</g>
<g>
</g>
<g>
</g>
<g>
</g>
<g>
</g>
<g>
</g>
<g>
</g>
<g>
</g>
<g>
</g>
<g>
</g>
<g>
</g>
</svg>
