<svg xmlns="http://www.w3.org/2000/svg" style="display: none;"><symbol id="pinterest" viewBox="0 0 511.977 511.977"><title>pinterest</title><path d="M262.948,0C122.628,0,48.004,89.92,48.004,187.968c0,45.472,25.408,102.176,66.08,120.16 c6.176,2.784,9.536,1.6,10.912-4.128c1.216-4.352,6.56-25.312,9.152-35.2c0.8-3.168,0.384-5.92-2.176-8.896 c-13.504-15.616-24.224-44.064-24.224-70.752c0-68.384,54.368-134.784,146.88-134.784c80,0,135.968,51.968,135.968,126.304 c0,84-44.448,142.112-102.208,142.112c-31.968,0-55.776-25.088-48.224-56.128c9.12-36.96,27.008-76.704,27.008-103.36 c0-23.904-13.504-43.68-41.088-43.68c-32.544,0-58.944,32.224-58.944,75.488c0,27.488,9.728,46.048,9.728,46.048 S144.676,371.2,138.692,395.488c-10.112,41.12,1.376,107.712,2.368,113.44c0.608,3.168,4.16,4.16,6.144,1.568 c3.168-4.16,42.08-59.68,52.992-99.808c3.968-14.624,20.256-73.92,20.256-73.92c10.72,19.36,41.664,35.584,74.624,35.584 c98.048,0,168.896-86.176,168.896-193.12C463.62,76.704,375.876,0,262.948,0z"/></symbol><symbol id="instagram" viewBox="0 0 512 512"><title>instagram</title><path d="M504.5,150.72c4.143,0,7.5-3.358,7.5-7.5V96.952C512,43.493,468.508,0,415.048,0H96.952C43.493,0,0,43.493,0,96.952 v272.846c0,0.017,0,0.034,0,0.052v45.199C0,468.507,43.493,512,96.952,512h318.096c53.46,0,96.952-43.493,96.952-96.952V272.894 c0-0.016,0-0.031,0-0.046v-94.005c0-4.142-3.357-7.5-7.5-7.5s-7.5,3.358-7.5,7.5v89.587 c-27.144,14.397-56.444,24.021-91.065,29.875c3.802-13.457,5.84-27.647,5.84-42.305c0-85.895-69.881-155.775-155.775-155.775 c-23.653,0-46.087,5.309-66.187,14.782v-3.671c0-11.985-9.75-21.736-21.735-21.736H84.549c-11.985,0-21.736,9.75-21.736,21.736 v33.938c0,11.985,9.75,21.735,21.736,21.735h43.672c-17.635,25.245-27.997,55.928-27.997,88.99 c0,23.637,5.301,46.056,14.763,66.145c-17.538,3.955-34.219,8.734-50.71,14.547c-3.907,1.376-5.957,5.66-4.58,9.566 c1.086,3.082,3.981,5.009,7.073,5.009c0.827,0,1.668-0.138,2.493-0.429c17.189-6.058,34.606-10.958,53.057-14.949 c27.247,45.42,76.969,75.886,133.68,75.886c65.263,0,121.272-40.347,144.417-97.404c36.747-5.502,67.861-14.848,96.583-29.081 v129.757c0,45.19-36.764,81.954-81.952,81.954H96.952C51.764,497,15,460.236,15,415.048v-40.635 c7.321-3.808,14.764-7.426,22.196-10.759c3.78-1.695,5.47-6.133,3.775-9.912s-6.134-5.47-9.912-3.775 c-5.364,2.405-10.73,4.961-16.06,7.616V96.952C15,51.764,51.764,15,96.952,15h318.096C460.236,15,497,51.764,497,96.952v46.268 C497,147.362,500.357,150.72,504.5,150.72z M84.549,152.011L84.549,152.011c-3.714-0.001-6.736-3.022-6.736-6.736v-33.938 c0-3.714,3.021-6.736,6.736-6.736h83.529c3.714,0,6.735,3.021,6.735,6.736v11.768c-12.925,7.925-24.607,17.682-34.69,28.906 H84.549z M256,396.775c-77.624,0-140.776-63.151-140.776-140.775S178.376,115.225,256,115.225S396.775,178.376,396.775,256 S333.624,396.775,256,396.775z"/><path d="M256,153.797c-56.355,0-102.203,45.848-102.203,102.203c0,56.355,45.849,102.203,102.203,102.203 S358.202,312.355,358.202,256C358.202,199.645,312.355,153.797,256,153.797z M256,343.203c-48.084,0-87.203-39.119-87.203-87.203 c0-48.084,39.119-87.203,87.203-87.203c48.083,0,87.202,39.119,87.202,87.203S304.083,343.203,256,343.203z"/><path d="M376.195,91.543c0,24.407,19.855,44.263,44.262,44.263c24.406,0,44.263-19.856,44.263-44.263 c0-24.406-19.856-44.262-44.263-44.262C396.051,47.28,376.195,67.136,376.195,91.543z M449.72,91.543 c0,16.136-13.127,29.263-29.263,29.263c-16.135,0-29.262-13.127-29.262-29.263c0-16.135,13.127-29.262,29.262-29.262 C436.593,62.28,449.72,75.407,449.72,91.543z"/></symbol><symbol id="heart" viewBox="0 0 51.997 51.997"><title>heart</title><path d="M51.911,16.242C51.152,7.888,45.239,1.827,37.839,1.827c-4.93,0-9.444,2.653-11.984,6.905 c-2.517-4.307-6.846-6.906-11.697-6.906c-7.399,0-13.313,6.061-14.071,14.415c-0.06,0.369-0.306,2.311,0.442,5.478 c1.078,4.568,3.568,8.723,7.199,12.013l18.115,16.439l18.426-16.438c3.631-3.291,6.121-7.445,7.199-12.014 C52.216,18.553,51.97,16.611,51.911,16.242z M15.999,9.904c-4.411,0-8,3.589-8,8c0,0.553-0.447,1-1,1s-1-0.447-1-1 c0-5.514,4.486-10,10-10c0.553,0,1,0.447,1,1S16.551,9.904,15.999,9.904z"/></symbol><symbol id="quotation" viewBox="0 0 191.029 191.029"><title>quotation</title><path style="fill:#020202;" d="M44.33,88.474v15.377h38.417v82.745H0v-82.745h0.002V88.474c0-31.225,8.984-54.411,26.704-68.918 C38.964,9.521,54.48,4.433,72.824,4.433v44.326C62.866,48.759,44.33,48.759,44.33,88.474z M181.107,48.759V4.433 c-18.343,0-33.859,5.088-46.117,15.123c-17.72,14.507-26.705,37.694-26.705,68.918v15.377h0v82.745h82.744v-82.745h-38.417V88.474 C152.613,48.759,171.149,48.759,181.107,48.759z"/></symbol><symbol id="facebook" viewBox="0 0 512 512"><title>facebook</title><path d="M288,176v-64c0-17.664,14.336-32,32-32h32V0h-64c-53.024,0-96,42.976-96,96v80h-64v80h64v256h96V256h64l32-80H288z"/></symbol><symbol id="social-media" viewBox="0 0 321.666 321.666"><title>social-media</title><path d="M320.518,70.438c-1.187-1.076-2.952-1.21-4.287-0.325c-5.903,3.916-13.86,5.904-20.473,6.914 c7.907-6.45,17.13-16.588,17.069-29.652c-0.006-1.314-0.748-2.515-1.921-3.108c-1.173-0.593-2.58-0.478-3.642,0.296 C295.279,53.309,278.1,57.903,271.81,59.37c-4.448-7.33-19.746-28.824-46.187-28.824c-1.479,0-2.988,0.07-4.485,0.207 c-32.859,3.022-48.781,22.237-56.351,37.825c-4.786,9.855-6.888,19.397-7.809,25.699c-5.211-4.542-14.3-11.454-27.829-18.371 C108.481,65.337,72.983,52.739,21.247,52.739c-5.03,0-10.197,0.119-15.358,0.354c-1.174,0.054-2.243,0.693-2.846,1.702 c-0.603,1.009-0.659,2.254-0.148,3.313C13.937,81.04,37.69,94.51,53.153,101.18c-8.484,2.248-17.549,6.634-20.388,13.544 c-1.441,3.508-1.811,9.021,4.608,15.364c9.424,9.312,20.503,14.97,30.265,18.405c-7.648,1.361-13.755,3.697-15.735,7.584 c-0.753,1.48-1.612,4.518,1.1,8.246c13.001,17.878,44.162,24.83,57.98,25.964c-1.753,4.165-5.404,10.928-12.455,17.626 c-15.066,14.309-38.822,21.873-68.7,21.874c-0.003,0-0.006,0-0.009,0c-8.119,0-16.833-0.55-25.903-1.636 c-1.498-0.177-2.944,0.622-3.585,1.99c-0.641,1.367-0.333,2.991,0.764,4.028C40.484,271.42,85.2,291.113,130.41,291.12 c0.009,0,0.015,0,0.023,0c49.772,0,98.504-24.472,130.357-65.463c28.367-36.505,39.233-80.199,30.06-120.383 c6.128-2.623,19.655-10.379,30.406-30.602C322.008,73.258,321.704,71.514,320.518,70.438z"/></symbol><symbol id="upload" viewBox="0 0 338.629 338.628"><title>upload</title><path d="M55.205,317.732L55.205,317.732c-31.591,0-54.244-4.305-55.205-4.497l1.261-13.139c55.581,0,95.449-14.52,118.49-43.126 c26.073-32.354,23.25-74.46,21.293-89.016H44.532L191.583,20.897l147.046,147.058h-92.738 C234.211,298.073,121.853,317.732,55.205,317.732z"/></symbol><symbol id="back" viewBox="0 0 400.004 400.004"><title>back</title><path d="M382.688,182.686H59.116l77.209-77.214c6.764-6.76,6.764-17.726,0-24.485c-6.764-6.764-17.73-6.764-24.484,0L5.073,187.757 c-6.764,6.76-6.764,17.727,0,24.485l106.768,106.775c3.381,3.383,7.812,5.072,12.242,5.072c4.43,0,8.861-1.689,12.242-5.072 c6.764-6.76,6.764-17.726,0-24.484l-77.209-77.218h323.572c9.562,0,17.316-7.753,17.316-17.315 C400.004,190.438,392.251,182.686,382.688,182.686z"/></symbol><symbol id="right" viewBox="0 0 268.832 268.832"><title>right</title><path d="M265.171,125.577l-80-80c-4.881-4.881-12.797-4.881-17.678,0c-4.882,4.882-4.882,12.796,0,17.678l58.661,58.661H12.5 c-6.903,0-12.5,5.597-12.5,12.5c0,6.902,5.597,12.5,12.5,12.5h213.654l-58.659,58.661c-4.882,4.882-4.882,12.796,0,17.678 c2.44,2.439,5.64,3.661,8.839,3.661s6.398-1.222,8.839-3.661l79.998-80C270.053,138.373,270.053,130.459,265.171,125.577z"/></symbol><symbol id="down-arrow" viewBox="0 0 496 496"><title>down-arrow</title><path style="fill:#FF9100;" d="M496,320.8c0,96.8-78.4,175.2-175.2,175.2H175.2C78.4,496,0,417.6,0,320.8V175.2 C0,78.4,78.4,0,175.2,0h145.6C417.6,0,496,78.4,496,175.2V320.8z"/><path style="fill:#FF7900;" d="M0,175.2C0,78.4,78.4,0,175.2,0h145.6C417.6,0,496,78.4,496,175.2v145.6 c0,96.8-78.4,175.2-175.2,175.2"/><g> <path style="fill:#FF6700;" d="M320.8,0C417.6,0,496,78.4,496,175.2v145.6c0,96.8-78.4,175.2-175.2,175.2"/> <path style="fill:#FF6700;" d="M303.2,274.4c-4.8-4.8-12-4.8-16.8,0l-27.2,27.2V192.8c0-6.4-5.6-12-12-12s-12,4.8-12,12v108 l-26.4-26.4c-4.8-4.8-12-4.8-16.8,0s-4.8,12,0,16.8l46.4,46.4c2.4,2.4,5.6,3.2,8,3.2s5.6-0.8,8-3.2l46.4-46.4 C307.2,286.4,307.2,278.4,303.2,274.4z"/> </g><path style="fill:#FFFFFF;" d="M303.2,260.8c-4.8-4.8-12-4.8-16.8,0L260,288V180c0-6.4-5.6-12-12-12s-12,4.8-12,12v108l-26.4-26.4 c-4.8-4.8-12-4.8-16.8,0s-4.8,12,0,16.8l46.4,46.4c2.4,2.4,5.6,3.2,8,3.2s5.6-0.8,8-3.2l46.4-46.4 C307.2,272.8,307.2,265.6,303.2,260.8z"/></symbol><symbol id="down-arrow-1" viewBox="0 0 51 60"><title>down-arrow-1</title><g id="001---Down-Arrow" transform="translate(0 -1)"><path id="Shape" d="m20.054 60.157c.5813997.8174439 1.6768717 1.0804255 2.566.616l26.674-14.364c.6614893-.3752948 1.0541837-1.0920986 1.0143775-1.8515917-.0398061-.7594931-.5052807-1.431319-1.2023775-1.7354083l-8.1-3.5v-28.642c.0039105-.80159246-.4739851-1.52711057-1.212-1.84l-17.95-7.679c-.5646992-.2459621-1.2117962-.21453168-1.75.085 0 0-7.122 3.954-8.072 4.481-.6311093.35911591-1.0234756 1.02690039-1.03 1.753v18.973c-.4967311-.1325147-1.02529851-.0706458-1.478.173l-7.6 4.228c-.49978261.2737118-.85833622.7484467-.98490246 1.304038-.12656624.5555914-.00901365 1.1387855.32290246 1.601962zm1.631-1.157-17.369-24.383 5.872 2.539c.6201591.2709822 1.335101.2113367 1.901785-.1586604.5666841-.3699971.908863-1.0005628.910215-1.6773396v-26.911l17.009 7.269v28.642c-.0017836.4008835.1166468.7930974.34 1.126.453.659.068.371 8.921 4.2zm17.32-19.608-7 3.882v-27.667l7-3.886zm9.31 5.274-6.8 3.771-8.254-3.573 6.8-3.77zm-27.258-41.666 16.679 7.137-6.789 3.769-16.691-7.133zm-10.567 25.375.5.2v6.742l-7.307-3.16z"/><path id="Shape" d="m16 12c-.5522847 0-1 .4477153-1 1v14c0 .5522847.4477153 1 1 1s1-.4477153 1-1v-14c0-.5522847-.4477153-1-1-1z"/><path id="Shape" d="m16 31c-.5522847 0-1 .4477153-1 1v3c0 .5522847.4477153 1 1 1s1-.4477153 1-1v-3c0-.5522847-.4477153-1-1-1z"/></g></symbol><symbol id="star" viewBox="0 0 501.28 501.28"><title>star</title><polygon style="fill:#FFCD00;" points="501.28,194.37 335.26,159.33 250.64,12.27 250.64,419.77 405.54,489.01 387.56,320.29 "/><polygon style="fill:#FFDA44;" points="166.02,159.33 0,194.37 113.72,320.29 95.74,489.01 250.64,419.77 250.64,12.27 "/></symbol><symbol id="star-1" viewBox="0 0 482.207 482.207"><title>star-1</title><polygon points="482.207,186.973 322.508,153.269 241.104,11.803 159.699,153.269 0,186.973 109.388,308.108 92.094,470.404 241.104,403.803 390.113,470.404 372.818,308.108 "/></symbol></svg>